<?xml version="1.0"?>

<svg width="744.09448" height="524.40942" xmlns="http://www.w3.org/2000/svg">
 <title>black hand</title>

 <metadata id="metadata7">image/svg+xml</metadata>
 <g>
  <title>Layer 1</title>
  <g externalResourcesRequired="false" id="layer1">
   <path transform="rotate(87.6963 285.56 230.53)" fill="#000000" id="path2170" d="m311.516998,365.540985c-5.018005,25.731018 -82.130493,24.160004 -83.304901,0c-1.174408,-24.16098 7.363892,-43.439972 3.991898,-68.063995c-6.831192,-18.329987 -17.282486,-35.625977 -18.80719,-55.571991c-3.578308,-15.516998 0.076797,-33.222992 -10.708603,-46.222c-9.461609,-16.001999 -18.4133,-32.419998 -24.833603,-49.910004c0.215408,-18.720993 22.232712,-9.464996 24.431702,4.831009c2.19899,14.29599 12.305191,28.565002 22.1884,37.634995c10.555298,9.686005 8.414307,-14.184998 5.985306,-22.067993c-5.623215,-18.251007 -7.49881,-38.13501 -14.452713,-56.044006c-6.548294,-16.864998 16.676697,-25.593002 21.141708,-7.695999c4.593994,18.412994 13.095993,36.701996 17.442001,54.337997c1.169998,4.749008 5.880981,22.681 4.898987,13.540009c-2.892975,-26.906006 -13.026001,-54.76001 -18.365997,-81.934006c-3.296997,-16.776901 23.105988,-14.596802 25.180023,1.938004c2.092987,16.691994 9.23999,32.929993 14.390991,49.205002c2.591003,8.185989 -1.713013,24.923996 4.778015,27.80899c8.036957,-13.179993 2.086975,-30.332993 0.037964,-44.638c0.34201,-13.369995 -13.34198,-34.927994 3.583008,-42.021996c20.03302,-2.108398 18.059998,24.650002 22.937988,37.702995c5.731018,17.231003 4.170013,35.30101 4.122009,53.125c1.355988,15.582001 2.277008,31.372009 6.373993,46.539001c16.499023,6.473999 14.725006,-21.714996 26.962006,-27.548004c9.634003,-9.457993 23.604004,-16.841995 37.382019,-13.197998c16.070984,9.302002 -2.121002,24.753006 -11.317993,31.12001c-12.257019,12.265991 -19.812012,28.623001 -22.118011,45.697983c-7.480011,14.542999 -23.269989,22.353027 -32.083984,36.127014c-15.229034,21.574005 -4.818024,49.575989 -9.835022,75.307983z"/>
  </g>
  <path id="svg_2" d="m144.905518,178.590576c0,0 -145,-1 -144.905518,-1.590576c0.094482,-0.590576 -0.094482,89.590576 0,89c0.094482,-0.590576 148.905518,-3.409424 148,-4" stroke-linecap="null" stroke-linejoin="null" stroke-dasharray="null" stroke-width="null" fill="#000000"/>
 </g>
</svg>